<?xml version="1.0" encoding="UTF-8" standalone="no"?>
<!DOCTYPE svg PUBLIC "-//W3C//DTD SVG 1.1//EN"
 "http://www.w3.org/Graphics/SVG/1.1/DTD/svg11.dtd">
<!-- Generated by graphviz version 2.40.1 (20161225.0304)
 -->
<!-- Title: dependencies Pages: 1 -->
<svg width="504pt" height="284pt"
 viewBox="0.00 0.00 504.00 284.00" xmlns="http://www.w3.org/2000/svg" xmlns:xlink="http://www.w3.org/1999/xlink">
<g id="graph0" class="graph" transform="scale(1 1) rotate(0) translate(4 280)">
<title>dependencies</title>
<polygon fill="#ffffff" stroke="transparent" points="-4,4 -4,-280 500,-280 500,4 -4,4"/>
<text text-anchor="start" x="227.0091" y="-42.4" font-family="sans-serif" font-weight="bold" font-size="14.00" fill="#000000">Legend</text>
<polygon fill="#ffffb3" stroke="transparent" points="14,-10 14,-30 34,-30 34,-10 14,-10"/>
<text text-anchor="start" x="37.629" y="-15.4" font-family="sans-serif" font-size="14.00" fill="#000000"> &#160;Declarations</text>
<polygon fill="#8dd3c7" stroke="transparent" points="127,-10 127,-30 147,-30 147,-10 127,-10"/>
<text text-anchor="start" x="150.7251" y="-15.4" font-family="sans-serif" font-size="14.00" fill="#000000"> &#160;Module</text>
<polygon fill="#80b1d3" stroke="transparent" points="213,-10 213,-30 233,-30 233,-10 213,-10"/>
<text text-anchor="start" x="236.7812" y="-15.4" font-family="sans-serif" font-size="14.00" fill="#000000"> &#160;Bootstrap</text>
<polygon fill="#fdb462" stroke="transparent" points="310,-10 310,-30 330,-30 330,-10 310,-10"/>
<text text-anchor="start" x="333.6732" y="-15.4" font-family="sans-serif" font-size="14.00" fill="#000000"> &#160;Providers</text>
<polygon fill="#fb8072" stroke="transparent" points="406,-10 406,-30 426,-30 426,-10 406,-10"/>
<text text-anchor="start" x="429.7258" y="-15.4" font-family="sans-serif" font-size="14.00" fill="#000000"> &#160;Exports</text>
<g id="clust1" class="cluster">
<title>cluster_PeoplePickerModule</title>
<polygon fill="none" stroke="#000000" stroke-dasharray="1,5" points="71,-70 71,-268 425,-268 425,-70 71,-70"/>
</g>
<g id="clust2" class="cluster">
<title>cluster_PeoplePickerModule_declarations</title>
<polygon fill="none" stroke="#000000" points="82,-78 82,-130 414,-130 414,-78 82,-78"/>
</g>
<g id="clust6" class="cluster">
<title>cluster_PeoplePickerModule_exports</title>
<polygon fill="none" stroke="#000000" points="79,-208 79,-260 417,-260 417,-208 79,-208"/>
</g>
<!-- PeoplePickerComponent -->
<g id="node1" class="node">
<title>PeoplePickerComponent</title>
<polygon fill="#ffffb3" stroke="#000000" points="405.6979,-122 250.3021,-122 250.3021,-86 405.6979,-86 405.6979,-122"/>
<text text-anchor="middle" x="328" y="-99.8" font-family="Times,serif" font-size="14.00" fill="#000000">PeoplePickerComponent</text>
</g>
<!-- PeoplePickerModule -->
<g id="node3" class="node">
<title>PeoplePickerModule</title>
<polygon fill="#8dd3c7" stroke="#000000" points="228.9158,-187 225.9158,-191 204.9158,-191 201.9158,-187 95.0842,-187 95.0842,-151 228.9158,-151 228.9158,-187"/>
<text text-anchor="middle" x="162" y="-164.8" font-family="Times,serif" font-size="14.00" fill="#000000">PeoplePickerModule</text>
</g>
<!-- PeoplePickerComponent&#45;&gt;PeoplePickerModule -->
<g id="edge1" class="edge">
<title>PeoplePickerComponent&#45;&gt;PeoplePickerModule</title>
<path fill="none" stroke="#000000" d="M353.9496,-122.0225C353.9496,-139.3734 353.9496,-163 353.9496,-163 353.9496,-163 238.8652,-163 238.8652,-163"/>
<polygon fill="#000000" stroke="#000000" points="238.8652,-159.5001 228.8652,-163 238.8652,-166.5001 238.8652,-159.5001"/>
</g>
<!-- PeoplePickerDirective -->
<g id="node2" class="node">
<title>PeoplePickerDirective</title>
<polygon fill="#ffffb3" stroke="#000000" points="231.9482,-122 90.0518,-122 90.0518,-86 231.9482,-86 231.9482,-122"/>
<text text-anchor="middle" x="161" y="-99.8" font-family="Times,serif" font-size="14.00" fill="#000000">PeoplePickerDirective</text>
</g>
<!-- PeoplePickerDirective&#45;&gt;PeoplePickerModule -->
<g id="edge2" class="edge">
<title>PeoplePickerDirective&#45;&gt;PeoplePickerModule</title>
<path fill="none" stroke="#000000" d="M162,-122.1061C162,-122.1061 162,-140.991 162,-140.991"/>
<polygon fill="#000000" stroke="#000000" points="158.5001,-140.9909 162,-150.991 165.5001,-140.991 158.5001,-140.9909"/>
</g>
<!-- PeoplePickerComponent  -->
<g id="node4" class="node">
<title>PeoplePickerComponent </title>
<polygon fill="#fb8072" stroke="#000000" points="409.1981,-252 250.8019,-252 250.8019,-216 409.1981,-216 409.1981,-252"/>
<text text-anchor="middle" x="330" y="-229.8" font-family="Times,serif" font-size="14.00" fill="#000000">PeoplePickerComponent </text>
</g>
<!-- PeoplePickerModule&#45;&gt;PeoplePickerComponent  -->
<g id="edge3" class="edge">
<title>PeoplePickerModule&#45;&gt;PeoplePickerComponent </title>
<path fill="none" stroke="#000000" stroke-dasharray="5,2" d="M228.863,-175C264.9988,-175 302.3004,-175 302.3004,-175 302.3004,-175 302.3004,-205.9775 302.3004,-205.9775"/>
<polygon fill="#000000" stroke="#000000" points="298.8005,-205.9774 302.3004,-215.9775 305.8005,-205.9775 298.8005,-205.9774"/>
</g>
<!-- PeoplePickerDirective  -->
<g id="node5" class="node">
<title>PeoplePickerDirective </title>
<polygon fill="#fb8072" stroke="#000000" points="232.9489,-252 87.0511,-252 87.0511,-216 232.9489,-216 232.9489,-252"/>
<text text-anchor="middle" x="160" y="-229.8" font-family="Times,serif" font-size="14.00" fill="#000000">PeoplePickerDirective </text>
</g>
<!-- PeoplePickerModule&#45;&gt;PeoplePickerDirective  -->
<g id="edge4" class="edge">
<title>PeoplePickerModule&#45;&gt;PeoplePickerDirective </title>
<path fill="none" stroke="#000000" stroke-dasharray="5,2" d="M162,-187.1061C162,-187.1061 162,-205.991 162,-205.991"/>
<polygon fill="#000000" stroke="#000000" points="158.5001,-205.9909 162,-215.991 165.5001,-205.991 158.5001,-205.9909"/>
</g>
</g>
</svg>
